<svg version="1.1" xmlns="http://www.w3.org/2000/svg" xmlns:xlink="http://www.w3.org/1999/xlink" width="92.18908" height="60.19116" viewBox="0,0,92.18908,60.19116"><g transform="translate(-193.90546,-149.90442)"><g data-paper-data="{&quot;isPaintingLayer&quot;:true}" fill-rule="nonzero" stroke="none" stroke-linecap="butt" stroke-linejoin="miter" stroke-miterlimit="10" stroke-dasharray="" stroke-dashoffset="0" style="mix-blend-mode: normal"><g><g stroke-width="0.5"><path d="M278.21846,184.47931l0.13196,0.22568c-1.64541,-3.29082 -3.8059,-6.78412 -6.43251,-9.3418c0,0 -0.0175,-0.0175 -0.04512,-0.05004c-0.78333,0.23988 -1.57275,0.40811 -2.41044,0.57607c-0.01547,0.37608 -0.0326,0.74158 -0.03476,1.08462c-0.4581,1.84134 -1.45994,5.37763 -3.57364,6.05191c-1.97916,0.63137 -6.13127,-1.29121 -8.33366,-1.28797c-0.46413,0.00068 -1.68889,0.13448 -2.90984,0.2316c-0.05016,0.33318 -0.13828,0.66596 -0.26864,0.99675c-0.59972,1.52179 -1.50299,1.1863 -1.24755,3.03558c0.03656,0.26466 0.08648,0.5204 0.14567,0.76969c0.09186,0.12363 0.16397,0.27513 0.19365,0.45953c5.79502,-0.13011 11.50941,-1.85441 17.38904,-1.9853c0.16391,-0.03388 0.32331,-0.02811 0.46001,-0.00693c0.07919,-0.00062 0.15841,-0.00092 0.23766,-0.00092l0.04708,0.07218c0.07969,0.02776 0.12678,0.05131 0.12678,0.05131c1.03274,0.52875 3.34751,2.06815 5.15746,2.38618c0.03555,-0.18471 0.0762,-0.372 0.12267,-0.56285c0,0 0.23052,-0.92209 1.09359,-0.95714c0.21047,-0.34959 0.56007,-0.52439 0.56007,-0.52439l0.21912,-0.10956c-0.62859,-0.32374 -0.6286,-1.11421 -0.6286,-1.11421zM274.02748,171.69461c1.11804,0.55902 0.55902,1.67705 0.55902,1.67705l-0.16413,0.22545c0.14442,0.37557 0.2859,0.75222 0.42341,1.13031c1.57389,1.09671 3.77197,2.4328 4.76227,4.14449c1.02062,1.76412 1.19797,3.8454 1.82947,5.78303c0.21807,0.28118 0.26688,0.62249 0.27781,0.76121c0.15123,0.36933 0.32633,0.73084 0.53495,1.08113c0.67765,1.13781 3.41624,1.82659 3.739,2.80151c0.29347,0.88646 -0.06681,1.96281 -0.58509,2.73954c-0.3125,0.46833 -1.11554,0.25263 -1.60135,0.5372c-1.41917,0.83128 -2.42754,1.06808 -3.75138,1.13548c0.07772,0.55915 0.03931,1.15336 0.05218,1.77677c0,3.14078 1.23436,9.62397 -1.55857,11.70802c-0.87183,0.65055 -2.35076,0.54198 -3.3581,0.54198c-2.64568,0 -7.25458,-0.35764 -9.75268,-2.33092c0.30875,-1.66934 -0.77997,-3.25094 -0.74732,-4.91908l-0.82854,0.09206c0.02517,-0.38769 0.05325,-0.75882 0.07078,-1.08409c-1.2729,0.1017 -2.52572,0.24642 -3.51655,0.77673c0,0 -1.11803,0.55902 -1.67705,-0.55902c-0.1296,-0.2592 -0.16907,-0.48836 -0.15322,-0.68747c-0.05112,0.01384 -0.10194,0.02388 -0.15171,0.03086c0.0063,0.06087 0.00629,0.0976 0.00629,0.0976c0,1.59017 0.72882,6.04134 -0.18668,7.32383c-1.35996,1.90511 -4.18387,1.06253 -6.09348,1.55552l-0.76006,0.02177c-0.04697,0.59772 -0.14103,1.12034 -0.32589,1.3161c-0.79349,0.84029 -2.24929,0.56128 -3.39782,0.69009c-2.02698,0.22733 -3.69397,-0.75642 -5.63879,-1c-2.1313,-0.26693 -3.30038,0.16678 -4.98819,-0.67217c-1.22136,0.19463 -1.42541,-1.02963 -1.42541,-1.02963c-0.33718,-2.04834 -0.92687,-5.77822 -0.57633,-8.34034c-0.70797,-0.3326 -1.54557,-0.74561 -2.30176,-1.21784c-1.30435,0.31275 -2.6169,0.57278 -3.91908,0.89869c-2.95089,0.73773 -5.90467,2.37857 -9.01971,2.36966c-1.53421,-0.00439 -3.12198,-0.47258 -4.68407,-1.08997c0.03024,2.0172 -0.01657,4.70704 -1.56527,5.87605c-1.82864,1.38031 -5.9949,-1.11584 -8.01396,-1.11858c-1.92132,-0.00261 -3.93838,1.87918 -5.74309,-0.24806c-0.46571,-0.54895 0.11885,-1.43525 0.14896,-2.1545c0.0815,-1.94717 -0.63664,-3.27181 -0.67603,-5.1806c0,0 0,-0.74881 0.57957,-1.0873c-0.37281,-0.00318 -0.75511,-0.00459 -1.14896,-0.0054c-0.72195,-0.26824 -1.67187,-0.21382 -2.16586,-0.8047c-0.67224,-0.80408 -0.07549,-2.31703 -0.25267,-3.26256c-0.65206,-3.47978 -2.66893,-7.36451 -2.34115,-10.94314c0.12696,-1.38604 1.71582,-3.64119 1.66349,-4.84495c-0.04834,-1.11193 -0.6735,-2.34082 -0.17217,-3.33449c1.51605,-3.0049 5.65118,-3.59926 8.09726,-5.44744c2.5347,-1.27735 4.71565,-3.71483 7.43412,-4.64239c0.22091,-3.01347 1.78423,-3.9795 4.56588,-5.35761c2.86573,-2.1493 5.40205,-4.3027 8.95306,-5.46377c2.83263,-0.92618 6.28634,-0.41448 9.21804,-0.71355c1.57511,-0.16068 2.86498,-1.33756 4.48606,-1.3427c2.78684,-0.00883 5.6145,2.01955 8.23639,2.68922c1.3286,0.33935 3.02597,0.40592 4.41779,0.68599c4.287,1.43053 8.30535,4.10058 12.63302,5.32489c1.54399,0.4368 2.97613,-1.29469 4.59533,-0.573c1.2072,0.53805 2.00733,3.63257 2.32493,4.79957c0.81613,2.99873 2.04709,5.84908 3.21601,8.72276c0.1291,0.02156 0.26811,0.06626 0.41705,0.14073zM279.10344,191.31034c0.93432,0.0978 2.16661,0.23651 2.60517,0.02259c0.38063,-0.18566 0.49157,-0.7285 0.86248,-0.9329c0.12171,-0.06707 0.35665,-0.09305 0.58826,-0.09887c-1.03247,-0.16386 -1.79348,-0.78752 -2.40234,-1.58238c-0.46513,0.61076 -1.02322,0.9949 -1.64313,1.20661c-0.01479,0.44587 -0.01134,0.89974 -0.01042,1.38494zM271.52029,188.40445c-0.64041,0 -0.95272,-0.3281 -1.10503,-0.64811c-2.20171,0.07265 -4.37618,0.34984 -6.54086,0.67489c0.28706,0.21048 0.43058,0.49754 0.43058,0.49754c0.98526,1.98869 1.87961,3.39572 2.42798,5.58918l0.33333,1.33333c0,0 0.05594,0.22379 0.02364,0.50312c0.09589,-0.00746 0.19102,-0.01462 0.28533,-0.02146c0.02852,-0.00207 0.12792,-3.24083 0.15976,-3.28108c0.47789,-0.60398 1.41413,-0.63713 2.16586,-0.8047c0.40436,-0.09014 2.20006,0.05185 2.69622,-0.00329c1.02957,-0.1144 2.71408,-0.72262 4.20652,-0.87327c0.00018,-0.4659 0.00181,-0.90903 0.01505,-1.34305c-1.51884,-0.27044 -3.14198,-1.00731 -4.58263,-1.71141c-0.14249,0.0553 -0.31263,0.08832 -0.51577,0.08832zM264.64094,196.45762l-0.33334,-1.33333c-0.50729,-2.02918 -1.30362,-3.22199 -2.23868,-5.07749c0,0 -0.3872,-0.77439 0.12738,-1.35644c-2.67814,0.42058 -5.34819,0.85243 -8.04336,0.99727c0.15729,0.56827 0.27074,1.15716 0.28401,1.80016v0.66667c0,0 0,1.19196 -1.16396,1.24796c0.49453,0.35726 0.98615,0.7326 1.46451,1.20149l0.66667,0.66666c0,0 0.43048,0.43048 0.39017,0.99102c0.44304,-0.01743 0.90126,-0.0238 1.3926,-0.0238l1.39529,0.39748c0,0 1.02018,0.34005 0.85266,1.33559c1.53629,-0.70382 3.42421,-1.11469 5.25709,-1.36482c-0.03621,-0.08911 -0.05104,-0.14841 -0.05104,-0.14841zM266.97428,174.79095c-0.07098,-0.28393 -0.05886,-0.518 0.00133,-0.71c-0.03999,-0.23904 -0.10597,-0.45851 -0.20973,-0.64397c-0.53176,-0.95043 -1.52833,-0.59021 -2.22063,-1.50038c-0.55519,-0.7299 -0.14087,-3.00362 -0.97415,-3.36108c-3.97603,-1.7056 -8.64014,1.05124 -12.32594,-0.93906c-0.67586,1.5963 -1.68262,3.19541 -2.82169,4.4092c1.12829,0.90932 2.17824,1.91165 2.87746,3.17559c1.22708,1.13117 2.3218,2.483 2.90841,3.91642c1.0793,-0.0619 2.33154,0.09876 3.31096,0.1001c1.84842,0.00253 3.4786,0.29816 5.27423,0.69712c0.80936,0.17983 1.57477,0.82079 2.3921,0.68157c0.68872,-0.11731 1.60418,-3.33062 1.75969,-3.94808c-0.00368,-0.46371 0.07196,-1.08995 0.08201,-1.70118c-0.02026,-0.05487 -0.03837,-0.11353 -0.05405,-0.17626zM270.55045,172.60844l0.68728,-0.17182c-1.23922,-2.93462 -2.42477,-5.90909 -3.25824,-8.95884c-0.09632,-0.35244 -0.80005,-3.12528 -1.0084,-3.20044c-0.62352,-0.22492 -3.01514,1.0035 -4.07133,0.76033c-4.34868,-1.00119 -8.45092,-3.92708 -12.70031,-5.34177c-1.32806,-0.26389 -2.9784,-0.32605 -4.24889,-0.64735c-2.39958,-0.60684 -5.2368,-2.63001 -7.76362,-2.64411c-1.39398,-0.00778 -2.75733,1.1552 -4.1806,1.32397c-2.76508,0.32787 -6.1244,-0.28177 -8.78197,0.61978c-3.32957,1.12952 -5.65688,3.16036 -8.38027,5.2029c-1.88756,0.95123 -3.03454,1.21739 -3.33069,2.87727c1.40375,0.03779 2.87669,0.3396 4.13004,0.48217c2.59398,0.29507 5.65373,-0.78546 8.16127,-0.37144c1.55437,-2.61102 5.05999,-6.87546 7.71556,-6.96798c1.82219,-0.06348 2.8433,1.29137 4.27651,1.69764c0.96058,0.27229 1.84413,-0.7994 2.82044,-1.00841c0.17115,-0.03664 3.04831,-0.02683 3.19024,0.01088c2.0583,0.54682 3.19036,2.20579 5.32868,2.79548c1.42404,1.352 2.68866,2.18718 2.95809,4.26835c0.07182,0.55475 0.03552,1.18808 -0.09032,1.86366c1.439,1.26728 3.19735,0.58734 5.03029,0.38177c1.69226,-0.18979 4.27683,0.07738 5.97212,0.33333c1.49764,0.22611 2.58255,0.58109 3.33545,2.09562c0.35135,0.70677 -0.40899,1.80921 0.15354,2.36286c0.72615,0.7147 1.93689,0.95043 2.44604,1.83295c0.13192,0.22866 0.23354,0.47273 0.31128,0.72765c0.4326,-0.10815 0.86521,-0.2163 1.29781,-0.32445zM244.33443,171.42583c0.39529,-1.18586 1.58114,-0.79057 1.58114,-0.79057l0.39635,0.1519c0.6618,-0.67632 1.08053,-1.62246 1.36934,-2.39973c1.27209,-3.4236 2.94494,-4.18493 0.22315,-7.14524c-1.90924,-0.41252 -2.98965,-2.16367 -4.67132,-2.53786c-2.15588,-0.47969 -3.88731,1.39993 -5.98932,1.00247c-1.27341,-0.24078 -2.22518,-1.5286 -3.72349,-1.6357c-1.12142,-0.08017 -1.84227,1.59929 -2.38902,2.23567c-0.94486,1.09976 -2.01054,1.90157 -2.83078,2.99473c1.68239,0.69172 3.25167,1.64363 4.87696,2.45629c2.28388,1.72666 3.70074,3.63315 4.60434,5.82341c2.03812,0.0648 4.48674,0.41065 6.4836,0.13609c0.01229,-0.09136 0.03469,-0.18843 0.06904,-0.29148zM251.61789,181.93407c-1.16548,-0.72975 -1.81759,-3.73914 -2.26995,-5.01261c-0.01846,-0.05196 -0.03807,-0.10345 -0.05876,-0.15449c-1.00442,-0.85158 -2.03222,-1.52309 -2.66123,-1.82782c0,0 -0.69805,-0.34903 -0.71522,-1.04708c-0.14639,0.0581 -0.2927,0.10685 -0.43857,0.14561c-1.97129,0.52371 -4.6226,0.2086 -6.88611,0.08018c0.21724,0.91329 0.37958,1.87269 0.50622,2.88386c0.32704,2.6113 1.27274,4.8649 1.00511,7.58917c-0.01043,0.10623 -0.02182,0.21256 -0.03404,0.31898c3.69407,0.03462 6.99512,0.24613 10.51108,0.94253c-0.0738,-1.74793 0.73253,-2.37437 1.4414,-3.81379c-0.1829,-0.02131 -0.32097,-0.0551 -0.39992,-0.10453zM236.27029,186.15445c0,-1.25 1.25,-1.25 1.25,-1.25h0.0288c0.02143,-0.17328 0.04115,-0.34654 0.05879,-0.51977c0.25906,-2.54296 -0.68982,-4.6331 -0.99489,-7.0775c-0.16003,-1.28226 -0.36464,-2.47851 -0.69254,-3.59686l-0.12878,-0.03668c0,0 -1.18585,-0.39528 -0.79056,-1.58114c0.04494,-0.13482 0.10009,-0.24921 0.16257,-0.34606c-0.70265,-1.41974 -1.73334,-2.69991 -3.30055,-3.86201c-2.12635,-1.06318 -3.98366,-2.1814 -6.29669,-2.84675c-0.6436,-0.18513 -1.69279,0.2925 -2.22674,0.3574c-1.81534,0.22066 -4.13169,0.20008 -5.94257,0.00328c-1.52051,-0.16524 -3.57131,-0.73367 -5.14015,-0.38818c-0.09355,0.0372 -0.19758,0.0668 -0.30922,0.08007c-2.5802,0.75037 -4.70687,3.27342 -7.10363,4.46084c-2.27279,1.69276 -5.4751,2.18023 -7.23608,4.55256c-0.6377,0.85909 0.5233,0.97128 0.49451,1.99885c-0.02205,0.78688 -0.47962,1.50113 -0.77529,2.23068c-0.59313,1.46354 -1.09096,2.68286 -0.89967,4.33521c0.25996,2.24552 1.2606,4.43108 1.66395,6.64601c0.16976,0.93224 0.57858,4.35876 0.91482,4.26608c4.30219,-0.01336 7.49882,0.20017 11.61428,1.73494c2.77707,1.03565 6.21753,3.26899 9.28287,3.25669c2.81384,-0.01129 5.63428,-1.62718 8.31361,-2.29701c0.81568,-0.20371 1.63536,-0.3818 2.45445,-0.56342c-0.05886,-0.18291 -0.0836,-0.36886 -0.06795,-0.55724c0.25009,-3.0095 1.85137,-1.86467 3.29614,-2.21656c1.02308,-0.24918 1.88829,-0.55757 2.7043,-0.83766c0.01598,-1.58256 0.29329,-3.16633 0.56524,-4.74905c-0.36975,-0.09924 -0.89902,-0.38335 -0.89902,-1.19673zM251.93695,192.15445v-0.66667c0.02462,-0.77017 -0.17969,-1.50014 -0.43677,-2.2286c-0.1132,-0.15007 -0.19708,-0.34719 -0.22215,-0.60612c-0.01392,-0.03728 -0.02786,-0.07459 -0.04178,-0.11193c-3.91261,-0.92668 -7.4675,-1.11499 -11.56184,-1.1348c-0.24019,1.33875 -0.49005,2.68103 -0.555,4.00926c0.45952,-0.06958 0.93861,-0.10264 1.4556,-0.08443c0.60835,-0.60139 1.30025,-1.26448 1.4669,-1.33157c1.85627,-0.74734 3.16876,0.53778 4.76555,0.93829c1.36881,0.34332 2.89872,0.39737 4.32868,0.79548c0.27734,0.26707 0.55871,0.5038 0.8421,0.72466c-0.04131,-0.17485 -0.04131,-0.30358 -0.04131,-0.30358zM243.43695,192.48778l-1.55317,1.54601c-0.13036,-0.03365 -0.25921,-0.06463 -0.3867,-0.09291c-0.03034,0.03328 -0.06128,0.06581 -0.09292,0.09745c-1.13822,1.13823 -2.59687,2.43272 -3.40572,3.90079c0.14771,0.27186 0.2065,0.64109 -0.0268,1.10768c-0.14391,0.28782 -0.32486,0.4645 -0.51425,0.56818c-0.22349,1.85012 0.18499,4.65603 0.48166,6.45606c1.38671,0.91438 2.63377,0.28893 4.40062,0.50944c2.3341,0.29131 4.07696,0.63903 6.36121,0.66667c0.23329,0.00282 0.38501,0.44203 0.60218,0.35675c0.17986,-0.07063 -0.32725,-0.26017 -0.36612,-0.44945c-0.0894,-0.43536 0,-0.88889 0,-1.33334c0,-0.34445 -0.01208,-2.82109 0.04536,-3.00033c0.62538,-1.95132 1.95769,-4.7283 3.28149,-6.10176c0.30325,-0.06754 0.59404,-0.12604 0.87668,-0.17661l-0.17075,-0.17075c-0.98269,-1.00918 -2.08856,-1.44044 -3.06533,-2.4628c-1.17265,-0.23945 -2.55919,-0.26057 -3.67131,-0.53786c-0.50472,-0.12584 -1.9202,-1.10879 -2.82655,-1.13725c0.03041,0.14908 0.0304,0.25402 0.0304,0.25402zM268.74033,204.40627c2.14925,0.72214 5.08537,0.83152 6.44663,0.83152c0.19743,0 1.64695,0.08267 1.97523,-0.12469c0.86127,-0.54404 0.44143,-2.16721 0.44143,-2.95864c0,-2.22222 0,-4.44445 0,-6.66667c0.09255,-2.89549 -2.83283,-0.99244 -4.96016,-0.75608c-0.10848,0.01206 -3.10955,-0.1729 -3.13792,-0.14132c-0.51191,0.57005 0.83263,1.51786 0.55272,2.23107c-0.30559,0.77863 -0.99752,1.41066 -1.72629,1.82119c-0.01811,0.0102 -0.03633,0.02026 -0.05465,0.03019c0.55286,1.7549 0.49296,4.10223 0.49296,5.14829v0.33334c0,0 0,0.10391 -0.02996,0.25182zM201.77029,197.15445c-0.04808,1.50413 0.65443,2.42123 0.66666,4c0.00534,0.68883 -0.68671,1.32813 -0.52707,1.99823c0.13581,0.57009 1.09735,-0.42433 1.66951,-0.55111c1.36536,-0.30254 2.82216,-0.26859 4.19543,-0.00427c0.35903,0.06911 4.28864,1.29885 4.37801,1.18873c0.82583,-1.01753 0.46486,-3.65622 0.45118,-4.89613c-0.987,-0.4486 -1.94462,-0.88777 -2.85074,-1.22977c-3.14865,-1.18838 -5.59834,-1.4908 -8.52499,-1.56997c0.54201,0.34819 0.54201,1.06429 0.54201,1.06429zM251.55045,205.60844c0.43312,-0.10546 4.45582,-0.19633 4.57319,-0.44448c0.49101,-1.0382 -0.18669,-4.70672 -0.18669,-6.0095c0,0 0,-0.18604 0.07177,-0.41457c-0.85504,0.00839 -1.68977,0.04361 -2.56528,0.18333c-0.39419,0.34098 -0.24203,1.014 -0.37326,1.51843c-0.57614,2.21469 -1.57019,2.89849 -1.63036,5.16088zM236.0793,194.60582c-0.53234,0.26067 -1.03094,0.61816 -1.60516,0.76519c-0.07362,0.01885 -0.17206,0.02916 -0.28317,0.03263c0.0183,0.02263 0.03553,0.04523 0.05173,0.06779c0.53296,0.26303 1.15245,0.64362 1.71453,0.99984c0.55188,-0.91336 1.29283,-1.77201 2.05392,-2.56815c-0.63376,0.14524 -1.26954,0.37838 -1.93185,0.70269z" fill="#000000"/><path d="M238.05265,193.87523c-0.7611,0.79614 -1.5491,1.73237 -2.10098,2.64573c-0.56207,-0.35622 -1.22543,-0.77894 -1.75839,-1.04197c-0.01619,-0.02256 -0.03367,-0.04709 -0.05198,-0.06973c0.11111,-0.00348 0.20954,-0.0138 0.28316,-0.03265c0.57421,-0.14704 1.12063,-0.56009 1.65297,-0.82077c0.66231,-0.32431 1.34146,-0.53538 1.97522,-0.68062z" data-paper-data="{&quot;noHover&quot;:false,&quot;origItem&quot;:[&quot;Path&quot;,{&quot;applyMatrix&quot;:true,&quot;segments&quot;:[[[797.71042,317.11134],[1.32462,-0.64863],[-1.06468,0.52135]],[[794.50011,318.64172],[1.14843,-0.29407],[-0.14725,0.0377]],[[793.93377,318.70698],[0.22223,-0.00695],[0.03661,0.04527]],[[794.03722,318.84257],[-0.03239,-0.04512],[1.06592,0.52606]],[[797.46628,320.84225],[-1.12415,-0.71244],[1.10376,-1.82673]],[[801.57413,315.70596],[-1.52219,1.59228],[-1.26751,0.29047]]],&quot;closed&quot;:true}]}" fill="#5a8f59"/><path d="M267.07812,174.97166c-0.01004,0.61123 -0.08727,1.24626 -0.08359,1.70997c-0.15551,0.61746 -1.08144,3.85032 -1.77016,3.96764c-0.81733,0.13922 -1.58758,-0.49689 -2.39694,-0.67672c-1.79563,-0.39896 -3.46074,-0.68227 -5.30916,-0.6848c-0.97942,-0.00135 -2.25841,-0.17106 -3.3377,-0.10916c-0.58661,-1.43342 -1.70187,-2.81782 -2.92895,-3.94899c-0.69922,-1.26394 -1.74866,-2.28556 -2.87695,-3.19488c1.13906,-1.2138 2.15931,-2.83734 2.83517,-4.43365c3.6858,1.99031 8.42144,-0.7656 12.39747,0.94c0.83329,0.35746 0.43033,2.65029 0.98552,3.38019c0.6923,0.91017 1.69113,0.56144 2.2229,1.51187c0.10376,0.18546 0.16989,0.40849 0.20988,0.64752c-0.06019,0.19199 -0.07244,0.4299 -0.00145,0.71383c0.01568,0.06273 0.03372,0.12231 0.05397,0.17718z" data-paper-data="{&quot;noHover&quot;:false,&quot;origItem&quot;:[&quot;Path&quot;,{&quot;applyMatrix&quot;:true,&quot;segments&quot;:[[[859.50037,277.48161],[0.03136,0.12545],[-0.14197,-0.56786]],[[859.50302,276.06161],[-0.12038,0.38399],[-0.07998,-0.47807]],[[859.08356,274.77368],[0.20752,0.37091],[-1.06353,-1.90086]],[[854.64229,271.77292],[1.38461,1.82034],[-1.11037,-1.4598]],[[852.69398,265.05077],[1.66657,0.71491],[-7.95206,-3.41121]],[[828.04209,263.17264],[7.3716,3.98062],[-1.35172,3.1926]],[[822.39871,271.99105],[2.27813,-2.42759],[2.25658,1.81864]],[[828.15364,278.34223],[-1.39844,-2.52787],[2.45417,2.26234]],[[833.97047,286.17507],[-1.17323,-2.86684],[2.15859,-0.1238]],[[840.59239,286.37527],[-1.95884,-0.00269],[3.69683,0.00507]],[[851.14086,287.76951],[-3.59126,-0.79792],[1.61873,0.35966]],[[855.92506,289.13265],[-1.63466,0.27844],[1.37745,-0.23463]],[[859.44445,281.23648],[-0.31103,1.23492],[-0.00736,-0.92741]],[[859.60846,277.83412],[-0.02009,1.22246],[-0.04051,-0.10973]]],&quot;closed&quot;:true}]}" fill="#93e28f"/><path d="M279.06401,189.92152c0.61991,-0.21171 1.21462,-0.6402 1.67976,-1.25096c0.60886,0.79486 1.4328,1.4721 2.46528,1.63596c-0.23161,0.00582 -0.46743,0.03721 -0.58914,0.10428c-0.37091,0.2044 -0.50971,0.78185 -0.89034,0.96752c-0.43855,0.21392 -1.73458,0.05572 -2.66889,-0.04208c-0.00092,-0.4852 -0.01146,-0.96885 0.00333,-1.41472z" data-paper-data="{&quot;noHover&quot;:false,&quot;origItem&quot;:[&quot;Path&quot;,{&quot;applyMatrix&quot;:true,&quot;segments&quot;:[[[883.75869,310.52038],[-0.00183,-0.97041],[1.86863,0.1956]],[[888.96902,310.56557],[-0.87711,0.42784],[0.76126,-0.37133]],[[890.69398,308.69977],[-0.74182,0.4088],[0.24341,-0.13414]],[[891.87049,308.50203],[-0.46322,0.01165],[-2.06495,-0.32772]],[[887.0658,305.33727],[1.21773,1.58971],[-0.93027,1.22152]],[[883.77953,307.7505],[1.23982,-0.42343],[-0.02958,0.89173]]],&quot;closed&quot;:true}]}" fill="#5ca369"/><path d="M272.05765,188.27103c1.44065,0.7041 3.08985,1.47091 4.60869,1.74135c-0.01324,0.43401 -0.01281,0.88695 -0.01299,1.35285c-1.49244,0.15065 -3.17686,0.76859 -4.20642,0.88299c-0.49617,0.05513 -2.38884,-0.07464 -2.7932,0.0155c-0.75173,0.16757 -1.59387,0.1669 -2.07176,0.77088c-0.03184,0.04025 -0.15031,3.25474 -0.17883,3.25681c-0.0943,0.00684 -0.2469,0.09581 -0.34279,0.10327c0.0323,-0.27933 -0.02616,-0.50509 -0.02616,-0.50509l-0.34217,-1.34297c-0.54836,-2.19346 -1.44603,-3.65247 -2.43128,-5.64116c0,0 -0.14274,-0.28849 -0.4298,-0.49897c2.16468,-0.32505 4.38457,-0.62748 6.58628,-0.70013c0.1523,0.32001 0.47912,0.65086 1.11953,0.65086c0.20315,0 0.37841,-0.03091 0.52089,-0.08621z" data-paper-data="{&quot;noHover&quot;:false,&quot;origItem&quot;:[&quot;Path&quot;,{&quot;applyMatrix&quot;:true,&quot;segments&quot;:[[[868.59239,304.7086],[0.4063,0],[-1.28082,0]],[[866.38234,303.41238],[0.30461,0.64002],[-4.40342,0.14531]],[[853.30062,304.76216],[4.32936,-0.6501],[0.57412,0.42096]],[[854.16179,305.75723],[0,0],[1.97051,3.97738]],[[859.01775,316.93559],[-1.09673,-4.38692],[0,0]],[859.68441,319.60226],[[859.73169,320.60849],[0.06461,-0.55866],[0.19178,-0.01493]],[[860.30235,320.56557],[-0.18861,0.01369],[0.05705,-0.00414]],[[860.62188,314.0034],[-0.06369,0.0805],[0.95579,-1.20795]],[[864.9536,312.394],[-1.50345,0.33514],[0.80872,-0.18028]],[[870.34605,312.38743],[-0.99233,0.11026],[2.05913,-0.22881]],[[878.75909,310.64088],[-2.98489,0.3013],[0.00035,-0.9318]],[[878.7892,307.95479],[-0.02649,0.86803],[-3.03768,-0.54089]],[[869.62394,304.53196],[2.8813,1.40821],[-0.28497,0.1106]]],&quot;closed&quot;:true}]}" fill="#5ca369"/><path d="M264.73535,196.63091c-1.83288,0.25014 -3.75932,0.68589 -5.29561,1.38971c0.16753,-0.99553 -0.86352,-1.33572 -0.86352,-1.33572l-1.41555,-0.40457c-0.49135,0 -0.9601,-0.00233 -1.40314,0.0151c0.0403,-0.56054 -0.39732,-1.00102 -0.39732,-1.00102l-0.67061,-0.67613c-0.47835,-0.46889 -0.97208,-0.85796 -1.46662,-1.21522c1.16397,-0.056 1.16555,-1.26112 1.16555,-1.26112l0.00207,-0.67292c-0.01327,-0.64301 -0.1203,-1.24322 -0.27759,-1.81149c2.69517,-0.14484 5.4336,-0.58769 8.11174,-1.00826c-0.51458,0.58205 -0.12161,1.36111 -0.12161,1.36111c0.93507,1.85549 1.74453,3.10071 2.25183,5.12988l0.32971,1.34156c0,0 0.01444,0.06 0.05065,0.1491z" data-paper-data="{&quot;noHover&quot;:false,&quot;origItem&quot;:[&quot;Path&quot;,{&quot;applyMatrix&quot;:true,&quot;segments&quot;:[[854.8337,320.81494],[[854.16703,318.14827],[0,0],[-1.01459,-4.05835]],[[849.68966,307.9933],[1.87013,3.71098],[0,0]],[[849.94442,305.28041],[-1.02915,1.16411],[-5.35629,0.84115]],[[833.8577,307.27495],[5.39034,-0.28968],[0.31458,1.13654]],[[834.42572,310.87527],[-0.02654,-1.28601],[0,0]],[834.42572,312.2086],[[832.0978,314.70453],[2.32793,-0.112],[0.98906,0.71452]],[[835.02682,317.1075],[-0.95671,-0.93777],[0,0]],[836.36016,318.44083],[[837.14051,320.42286],[0.08061,-1.12107],[0.88608,-0.03485]],[[839.92572,320.37527],[-0.98269,0],[0,0]],[842.71629,321.17023],[[844.4216,323.84141],[0.33505,-1.99107],[3.07258,-1.40764]],[[854.93578,321.11176],[-3.66576,0.50028],[-0.07242,-0.17821]]],&quot;closed&quot;:true}]}" fill="#68ba78"/><path d="M252.02481,192.47631c-0.2834,-0.22086 -0.56372,-0.46055 -0.84105,-0.72761c-1.42997,-0.3981 -2.96841,-0.43628 -4.33721,-0.77961c-1.59679,-0.40051 -2.89835,-1.7178 -4.75462,-0.97046c-0.16665,0.06709 -0.86042,0.7176 -1.46877,1.31899c-0.517,-0.01821 -1.09294,0.03963 -1.55246,0.10921c0.06495,-1.32824 0.31759,-2.7015 0.55778,-4.04025c4.09434,0.01981 7.74374,0.216 11.65635,1.14267c0.01392,0.03733 0.02809,0.07563 0.04201,0.11291c0.02507,0.25893 0.10984,0.46133 0.22303,0.6114c0.25708,0.72845 0.46028,1.47588 0.43566,2.24605l-0.00135,0.67127c0,0 -0.00068,0.13059 0.04063,0.30544z" data-paper-data="{&quot;noHover&quot;:false,&quot;origItem&quot;:[&quot;Path&quot;,{&quot;applyMatrix&quot;:true,&quot;segments&quot;:[[829.42572,312.2086],[[829.42572,310.87527],[0,0],[0.04924,-1.54034]],[[828.55219,306.41807],[0.51416,1.45691],[-0.22639,-0.30013]],[[828.10789,305.20583],[0.05014,0.51786],[-0.02784,-0.07457]],[[828.02434,304.98197],[0.02784,0.07467],[-7.82523,-1.85335]],[[804.90065,302.71237],[8.18869,0.03963],[-0.48038,2.6775]],[[803.79066,310.73089],[0.12989,-2.65647],[0.91904,-0.13915]],[[806.70187,310.56204],[-1.03399,-0.03643],[1.2167,-1.20279]],[[809.63568,307.8989],[-0.33331,0.13419],[3.71254,-1.49468]],[[819.16677,309.77548],[-3.19357,-0.80102],[2.73761,0.68665]],[[827.82414,311.36643],[-2.85993,-0.79621],[0.55468,0.53413]],[[829.50835,312.81576],[-0.5668,-0.44172],[-0.08263,-0.34969]]],&quot;closed&quot;:true}]}" fill="#68ba78"/><path d="M251.41089,205.6433c0.06018,-2.26238 1.06217,-3.03235 1.63831,-5.24704c0.13122,-0.50443 -0.00648,-1.18164 0.38772,-1.52262c0.8755,-0.13972 1.74319,-0.16782 2.59822,-0.1762c-0.07177,0.22853 -0.06996,0.41575 -0.06996,0.41575c0,1.30279 0.67955,5.05251 0.18854,6.09071c-0.11736,0.24816 -4.19815,0.34052 -4.63127,0.44598z" data-paper-data="{&quot;noHover&quot;:false,&quot;origItem&quot;:[&quot;Path&quot;,{&quot;applyMatrix&quot;:true,&quot;segments&quot;:[[[828.65272,339.11658],[0,0],[0.86624,-0.21092]],[[837.7991,338.22761],[-0.23473,0.49632],[0.98202,-2.07639]],[[837.42572,326.2086],[0,2.60557],[0,0]],[[837.56926,325.37946],[-0.14354,0.45707],[-1.71008,0.01677]],[[832.4387,325.74612],[1.75101,-0.27944],[-0.78839,0.68197]],[[831.69218,328.78298],[0.26245,-1.00885],[-1.15228,4.42938]],[[828.43145,339.10473],[0.12036,-4.52476],[0,0]]],&quot;closed&quot;:true}]}" fill="#73b470"/><path d="M252.06539,182.05395c-0.70886,1.43942 -1.52971,2.08802 -1.45591,3.83595c-3.51596,-0.69641 -6.88612,-0.91075 -10.58019,-0.94537c0.01222,-0.10643 0.0226,-0.21382 0.03303,-0.32005c0.26763,-2.72427 -0.68641,-5.03244 -1.01345,-7.64374c-0.12664,-1.01117 -0.28157,-1.98212 -0.4988,-2.89541c2.26351,0.12842 4.95425,0.42608 6.92555,-0.09762c0.14587,-0.03875 0.29578,-0.08727 0.44217,-0.14537c0.01717,0.69805 0.72312,1.04853 0.72312,1.04853c0.62901,0.30473 1.68329,0.9938 2.6877,1.84538c0.0207,0.05104 0.04125,0.1038 0.05971,0.15575c0.45237,1.27347 1.11162,4.32784 2.27709,5.05759c0.07895,0.04944 0.21707,0.08306 0.39997,0.10436z" data-paper-data="{&quot;noHover&quot;:false,&quot;origItem&quot;:[&quot;Path&quot;,{&quot;applyMatrix&quot;:true,&quot;segments&quot;:[[[828.78759,291.76784],[0.15791,0.09887],[-2.33095,-1.4595]],[[824.24768,281.74263],[0.90474,2.54693],[-0.03692,-0.10392]],[[824.13015,281.43364],[0.0414,0.10208],[-2.00883,-1.70316]],[[818.80769,277.778],[1.25802,0.60946],[0,0]],[[817.37725,275.68385],[0.03434,1.3961],[-0.29279,0.11619]],[[816.50011,275.97506],[0.29175,-0.07751],[-3.94258,1.04741]],[[802.72788,276.13542],[4.52703,0.25683],[0.43447,1.82657]],[[803.74033,281.90314],[-0.25328,-2.02233],[0.65409,5.2226]],[[805.75054,297.08147],[0.53526,-5.44854],[-0.02087,0.21246]],[[805.68247,297.71943],[0.02444,-0.21285],[7.38814,0.06924]],[[826.70464,299.60449],[-7.03193,-1.39281],[-0.1476,-3.49586]],[[829.58743,291.9769],[-1.41773,2.87884],[-0.3658,-0.04261]]],&quot;closed&quot;:true}]}" fill="#68ba78"/><path d="M268.73639,204.1912l-0.00136,-0.33464c0,-1.04606 0.04605,-3.43827 -0.50681,-5.19317c0.01832,-0.00992 0.03661,-0.02039 0.05473,-0.0306c0.72877,-0.41053 1.43328,-1.06696 1.73887,-1.84559c0.27991,-0.71321 -1.05684,-1.66776 -0.54493,-2.23782c0.02836,-0.03158 3.0545,0.14448 3.16298,0.13243c2.12733,-0.23636 5.09371,-2.12271 5.00116,0.77278c0,2.22222 0.00624,4.50201 0.00624,6.72423c0,0.79144 0.40627,2.43014 -0.455,2.97419c-0.32828,0.20736 -1.78981,0.13137 -1.98724,0.13137c-1.36125,0 -4.3485,-0.11846 -6.49774,-0.8406c0.02996,-0.1479 0.0291,-0.25259 0.0291,-0.25259z" data-paper-data="{&quot;noHover&quot;:false,&quot;origItem&quot;:[&quot;Path&quot;,{&quot;applyMatrix&quot;:true,&quot;segments&quot;:[[[863.03247,336.71224],[0.05992,-0.29581],[4.29849,1.44428]],[[875.92572,338.37527],[-2.7225,0],[0.39486,0]],[[879.87619,338.12589],[-0.65656,0.41473],[1.72253,-1.08809]],[[880.75906,332.2086],[0,1.58287],[0,-4.44444]],[[880.75906,318.87527],[0,4.44444],[0.1851,-5.79099]],[[870.83873,317.3631],[4.25466,-0.47272],[-0.21696,0.02411]],[[864.5629,317.08046],[0.05672,-0.06316],[-1.02383,1.14011]],[[865.66834,321.5426],[0.55983,-1.42642],[-0.61117,1.55725]],[[862.21577,325.18497],[1.45754,-0.82106],[-0.03623,0.02041]],[[862.10647,325.24534],[0.03664,-0.01984],[1.10572,3.5098]],[[863.09239,335.54193],[0,-2.09212],[0,0]],[863.09239,336.2086]],&quot;closed&quot;:true}]}" fill="#b3e59e"/><path d="M243.39479,192.18516c0.90634,0.02846 2.34087,1.01054 2.8456,1.13638c1.11212,0.27729 2.5219,0.30828 3.69455,0.54772c0.97677,1.02236 2.09751,1.47228 3.0802,2.48146l0.17128,0.17195c-0.28264,0.05057 -0.57392,0.10798 -0.87717,0.17552c-1.3238,1.37346 -2.66213,4.202 -3.28751,6.15332c-0.05744,0.17924 -0.05837,2.66758 -0.05837,3.01204c0,0.44444 -0.09319,0.90011 -0.00379,1.33547c0.03887,0.18928 0.54661,0.37849 0.36675,0.44912c-0.21717,0.08528 -0.37092,-0.35291 -0.60421,-0.35574c-2.28425,-0.02764 -4.06847,-0.37486 -6.40257,-0.66617c-1.76685,-0.22051 -3.03208,0.3913 -4.41879,-0.52308c-0.29667,-1.80003 -0.71681,-4.64005 -0.49331,-6.49017c0.18939,-0.10369 0.37066,-0.28436 0.51457,-0.57217c0.23329,-0.46658 0.17592,-0.84302 0.02821,-1.11488c0.80885,-1.46807 2.2883,-2.79119 3.42652,-3.92941c0.03164,-0.03164 0.06335,-0.06468 0.09369,-0.09795c0.12749,0.02828 0.2581,0.0582 0.38845,0.09185l1.56612,-1.5512c0,0 0.0002,-0.105 -0.03021,-0.25407z" data-paper-data="{&quot;noHover&quot;:false,&quot;origItem&quot;:[&quot;Path&quot;,{&quot;applyMatrix&quot;:true,&quot;segments&quot;:[[812.42572,312.87527],[[809.31938,315.96729],[0,0],[-0.26071,-0.0673]],[[808.54599,315.78148],[0.25498,0.05655],[-0.06068,0.06655]],[[808.36016,315.97637],[0.06328,-0.06328],[-2.27645,2.27645]],[[801.54872,323.77794],[1.61769,-2.93614],[0.29542,0.54373]],[[801.49512,325.9933],[0.46659,-0.93317],[-0.28781,0.57563]],[[800.46663,327.12966],[0.37878,-0.20737],[-0.44698,3.70024]],[[801.42995,340.04178],[-0.59333,-3.60006],[2.77341,1.82877]],[[810.23118,341.06067],[-3.5337,-0.44103],[4.6682,0.58262]],[[822.9536,342.394],[-4.5685,-0.05527],[0.46658,0.00565]],[[824.15796,343.1075],[-0.43433,0.17056],[0.35972,-0.14126]],[[823.42572,342.2086],[0.07774,0.37856],[-0.17881,-0.87072]],[[823.42572,339.54193],[0,0.88889],[0,-0.68891]],[[823.51644,333.54127],[-0.11489,0.35848],[1.25075,-3.90264]],[[830.07941,321.33775],[-2.6476,2.74692],[0.6065,-0.13509]],[[831.83278,320.98453],[-0.56528,0.10114],[0,0]],[[831.49129,320.64303],[0,0],[-1.96539,-2.01836]],[[825.36064,315.71743],[1.95353,2.04473],[-2.3453,-0.47889]],[[818.01801,314.64172],[2.22425,0.55458],[-1.00945,-0.25169]],[[812.36491,312.36723],[1.81269,0.05692],[0.06082,0.29815]]],&quot;closed&quot;:true}]}" fill="#b3e59e"/><path d="M201.18678,196.06228c2.92665,0.07918 5.45657,0.37784 8.60521,1.56622c0.90612,0.34199 1.87417,0.80364 2.86118,1.25224c0.01367,1.23991 0.36568,3.91751 -0.46015,4.93505c-0.08937,0.11011 -4.04451,-1.10158 -4.40355,-1.17068c-1.37327,-0.26432 -2.88402,-0.31517 -4.24938,-0.01263c-0.57216,0.12678 -1.53659,1.11711 -1.6724,0.54702c-0.15964,-0.6701 0.52631,-1.32327 0.52097,-2.01211c-0.01223,-1.57877 -0.7105,-2.53246 -0.66242,-4.0366c0,0 0.00255,-0.72033 -0.53946,-1.06851z" data-paper-data="{&quot;noHover&quot;:false,&quot;origItem&quot;:[&quot;Path&quot;,{&quot;applyMatrix&quot;:true,&quot;segments&quot;:[[[729.09239,322.2086],[0,0],[-0.09616,3.00827]],[[730.42572,330.2086],[-0.02447,-3.15754],[0.01068,1.37767]],[[729.37158,334.20506],[-0.31928,-1.34021],[0.27162,1.14017]],[[732.71059,333.10284],[-1.14432,0.25356],[2.73073,-0.60507]],[[741.10146,333.09431],[-2.74655,-0.52865],[0.71806,0.13821]],[[749.85748,335.47177],[-0.17874,0.22023],[1.65167,-2.03506]],[[750.75984,325.67951],[0.02735,2.47982],[-1.974,-0.8972]],[[745.05836,323.21998],[1.81225,0.68399],[-6.2973,-2.37676]],[[728.00838,320.08003],[5.85331,0.15835],[1.08401,0.69637]]],&quot;closed&quot;:true}]}" fill="#b3e59e"/><path d="M278.89475,185.60855l-0.21932,0.11017c0,0 -0.35047,0.17723 -0.56094,0.52683c-0.86307,0.03505 -1.09573,0.96188 -1.09573,0.96188c-0.04647,0.19085 -0.08817,0.38009 -0.12373,0.5648c-1.80995,-0.31803 -4.12655,-1.85446 -5.15929,-2.38321c0,0 -0.0472,-0.02338 -0.12689,-0.05115l-0.04694,-0.07239c-0.07925,0 -0.15904,0.00115 -0.23824,0.00176c-0.13669,-0.02117 -0.29739,-0.02518 -0.4613,0.0087c-5.87963,0.13088 -11.67928,1.84561 -17.47431,1.97571c-0.02968,-0.1844 -0.1025,-0.33756 -0.19437,-0.46119c-0.05919,-0.24928 -0.11011,-0.50767 -0.14666,-0.77232c-0.25545,-1.84928 0.64543,-1.52407 1.24515,-3.04586c0.13036,-0.33079 0.21814,-0.66778 0.2683,-1.00096c1.22095,-0.09712 2.54566,-0.23409 3.00979,-0.23477c2.20239,-0.00324 6.30768,1.87068 8.28683,1.23931c2.1137,-0.67428 3.08204,-4.12094 3.54014,-5.96228c0.00216,-0.34304 0.07607,-0.79072 0.09154,-1.1668c0.83769,-0.16796 1.63517,-0.32995 2.4185,-0.56982c0.02762,0.03254 0.0454,0.05031 0.0454,0.05031c2.62661,2.55768 4.80077,6.09931 6.44618,9.39013l-0.13179,-0.2264c0,0 -0.00092,0.7938 0.62767,1.11755z" data-paper-data="{&quot;noHover&quot;:false,&quot;origItem&quot;:[&quot;Path&quot;,{&quot;applyMatrix&quot;:true,&quot;segments&quot;:[[881.98874,296.85833],[[882.25267,297.3097],[0,0],[-3.29082,-6.58164]],[[869.38764,278.62609],[5.25322,5.11536],[0,0]],[[869.2974,278.52601],[0.05523,0.06508],[-1.56667,0.47976]],[[864.47652,279.67815],[1.67538,-0.33592],[-0.03095,0.75217]],[[864.40699,281.84739],[0.00432,-0.68607],[-0.9162,3.68268]],[[857.25972,293.95122],[4.2274,-1.34857],[-3.95832,1.26274]],[[840.59239,291.37527],[4.40478,-0.00648],[-0.92826,0.00136]],[[834.77271,291.83848],[2.4419,-0.19424],[-0.10032,0.66636]],[[834.23542,293.83198],[0.26072,-0.66159],[-1.19944,3.04358]],[[831.74033,299.90314],[-0.51089,-3.69856],[0.07311,0.52931]],[[832.03166,301.44251],[-0.11837,-0.49857],[0.18373,0.24726]],[[832.41895,302.36157],[-0.05936,-0.3688],[11.59005,-0.26021]],[[867.19704,298.39098],[-11.75926,0.26177],[0.32782,-0.06777]],[[868.11706,298.37712],[-0.27339,-0.04235],[0.15838,-0.00123]],[[868.59239,298.37527],[-0.15851,0],[0,0]],[[868.68655,298.51964],[0,0],[0.15938,0.05553]],[[868.94011,298.62226],[0,0],[2.06549,1.05751]],[[879.25503,303.39463],[-3.6199,-0.63606],[0.0711,-0.36943]],[[879.50037,302.26893],[-0.09294,0.3817],[0,0]],[[881.68756,300.35465],[-1.72615,0.0701],[0.42094,-0.69919]],[882.80769,299.30587],[[883.24593,299.08675],[0,0],[-1.25718,-0.64749]]],&quot;closed&quot;:true}]}" fill="#68ba78"/><path d="M269.29936,172.95073c-0.07773,-0.25492 -0.27313,-0.53373 -0.40504,-0.76238c-0.50915,-0.88252 -1.72045,-1.11657 -2.4466,-1.83127c-0.56252,-0.55365 0.19664,-1.65175 -0.15471,-2.35852c-0.7529,-1.51452 -1.83841,-1.8664 -3.33605,-2.09251c-1.69529,-0.25594 -4.18143,-0.50561 -5.87369,-0.31582c-1.83294,0.20557 -3.68869,0.86307 -5.12769,-0.40421c0.12583,-0.67559 0.16062,-1.29962 0.0888,-1.85437c-0.26944,-2.08118 -1.52831,-2.88943 -2.95234,-4.24143c-2.13833,-0.58969 -3.23717,-2.22338 -5.29547,-2.7702c-0.14193,-0.03771 -2.99494,-0.0481 -3.16609,-0.01146c-0.97631,0.209 -1.84076,1.27062 -2.80134,0.99833c-1.4332,-0.40627 -2.44764,-1.76799 -4.26983,-1.7045c-2.65557,0.09252 -6.15021,4.32608 -7.70458,6.9371c-2.50754,-0.41401 -5.66728,0.66662 -8.26126,0.37154c-1.25335,-0.14258 -2.72628,-0.44529 -4.13004,-0.48308c0.29615,-1.65987 1.44351,-1.93168 3.33106,-2.88291c2.72339,-2.04254 5.05534,-4.08914 8.38491,-5.21866c2.65756,-0.90155 6.0277,-0.30659 8.79278,-0.63446c1.42327,-0.16877 2.8019,-1.34154 4.19588,-1.33376c2.52681,0.0141 5.40417,2.03831 7.80375,2.64514c1.27049,0.3213 2.93691,0.39545 4.26497,0.65935c4.24939,1.41469 8.36414,4.36988 12.71282,5.37107c1.0562,0.24317 3.44773,-0.98613 4.07125,-0.76121c0.20835,0.07515 0.91229,2.85442 1.00861,3.20686c0.83347,3.04975 2.0164,6.03867 3.25562,8.97329l-0.68749,0.17243c-0.4326,0.10815 -0.86565,0.2175 -1.29825,0.32566z" data-paper-data="{&quot;noHover&quot;:false,&quot;origItem&quot;:[&quot;Path&quot;,{&quot;applyMatrix&quot;:true,&quot;segments&quot;:[[[866.65272,273.11658],[-0.8652,0.2163],[0,0]],[[868.02728,272.77294],[0,0],[-2.47844,-5.86923]],[[861.51081,254.85526],[1.66694,6.09951],[-0.19263,-0.70487]],[[859.49401,248.45439],[0.41669,0.15031],[-1.24704,-0.44984]],[[851.35134,249.97506],[2.11239,0.48633],[-8.69737,-2.00239]],[[825.95072,239.29152],[8.49878,2.82938],[-2.65612,-0.52778]],[[817.45295,237.99682],[2.54097,0.64259],[-4.79916,-1.21367]],[[801.92572,232.7086],[5.05363,0.0282],[-2.78797,-0.01556]],[[793.56452,235.35654],[2.84654,-0.33753],[-5.53015,0.65574]],[[776.00059,236.5961],[5.31513,-1.8031],[-6.65914,2.25904]],[[759.24005,247.00189],[5.44677,-4.08508],[-3.77511,1.90245]],[[752.57866,252.75642],[0.59231,-3.31975],[2.80751,0.07558]],[[760.83873,253.72077],[-2.5067,-0.28515],[5.18796,0.59015]],[[777.16127,252.97789],[-5.01508,-0.82803],[3.10873,-5.22205]],[[792.59239,239.04193],[-5.31114,0.18504],[3.64438,-0.12697]],[[801.14541,242.4372],[-2.86641,-0.81254],[1.92116,0.54459]],[[806.78629,240.42038],[-1.95262,0.41801],[0.3423,-0.07328]],[[813.16677,240.44214],[-0.28386,-0.07541],[4.1166,1.09364]],[[823.82414,246.0331],[-4.27665,-1.17938],[2.84807,2.704]],[[829.74033,254.56981],[-0.53887,-4.16235],[0.14364,1.1095]],[[829.55969,258.29714],[0.25167,-1.35117],[2.878,2.53456]],[[839.62027,259.06067],[-3.66587,0.41114],[3.38452,-0.37958]],[[851.56452,259.72733],[-3.39058,-0.51189],[2.99527,0.45221]],[[858.23542,263.91856],[-1.5058,-3.02905],[0.7027,1.41354]],[[858.54249,268.64428],[-1.12505,-1.10731],[1.4523,1.4294]],[[863.43456,272.31019],[-1.0183,-1.76505],[0.26383,0.45731]],[[864.05711,273.76548],[-0.15547,-0.50983],[0.8652,-0.2163]]],&quot;closed&quot;:true}]}" fill="#74c47b"/><path d="M244.29667,171.75632c-1.99685,0.27456 -4.4846,-0.06092 -6.52272,-0.12572c-0.90361,-2.19027 -2.36212,-4.13903 -4.646,-5.86569c-1.62529,-0.81265 -3.19449,-1.77939 -4.87687,-2.4711c0.82025,-1.09316 1.8925,-1.91307 2.83736,-3.01282c0.54675,-0.63638 1.27985,-2.3296 2.40127,-2.24943c1.49831,0.1071 2.46613,1.38663 3.73954,1.62742c2.10201,0.39745 3.87677,-1.4752 6.03265,-0.9955c1.68167,0.37418 2.77957,2.1473 4.68881,2.55983c2.72179,2.9603 1.04925,3.75866 -0.22285,7.18227c-0.28881,0.77727 -0.71474,1.73606 -1.37654,2.41238l-0.39678,-0.15136c0,0 -1.19247,-0.38848 -1.58776,0.79737c-0.03435,0.10305 -0.05783,0.201 -0.07011,0.29237z" data-paper-data="{&quot;noHover&quot;:false,&quot;origItem&quot;:[&quot;Path&quot;,{&quot;applyMatrix&quot;:true,&quot;segments&quot;:[[[814.22068,270.75136],[-0.0687,0.20609],[0.79057,-2.37171]],[817.38296,269.17023],[[818.17566,269.47402],[0,0],[1.3236,-1.35263]],[[820.91434,264.67457],[-0.57761,1.55454],[2.54419,-6.8472]],[[821.36064,250.3841],[5.44359,5.92061],[-3.81847,-0.82505]],[[812.01801,245.30839],[3.36333,0.74836],[-4.31176,-0.95939]],[[800.03937,247.31333],[4.20403,0.79491],[-2.54683,-0.48156]],[[792.59239,244.04193],[2.99661,0.21421],[-2.24284,-0.16033]],[[787.81436,248.51327],[1.0935,-1.27276],[-1.88971,2.19951]],[[782.15279,254.50274],[1.6405,-2.18633],[3.36477,1.38343]],[[791.90672,259.41531],[-3.25059,-1.6253],[4.56776,3.45332]],[[801.1154,271.06214],[-1.80721,-4.38053],[4.07623,0.12959]],[[814.0826,271.33432],[-3.99371,0.54913],[0.02457,-0.18273]]],&quot;closed&quot;:true}]}" fill="#68ba78"/><path d="M237.21747,187.3646c-0.27195,1.58272 -0.55323,3.17645 -0.56921,4.75901c-0.81601,0.28009 -1.68376,0.59274 -2.70683,0.84192c-1.44477,0.35189 -3.05214,-0.78545 -3.30223,2.22405c-0.01565,0.18838 0.00846,0.37496 0.06732,0.55787c-0.8191,0.18162 -1.6432,0.36356 -2.45888,0.56726c-2.67933,0.66984 -5.52184,2.29539 -8.33568,2.30668c-3.06534,0.01229 -6.53555,-2.22509 -9.31262,-3.26073c-4.11546,-1.53477 -7.33256,-1.76606 -11.63475,-1.75271c-0.33623,0.09268 -0.74968,-3.34273 -0.91945,-4.27496c-0.40335,-2.21493 -1.40753,-4.41682 -1.66748,-6.66234c-0.19129,-1.65235 0.30722,-2.88244 0.90035,-4.34598c0.29566,-0.72956 0.75459,-1.44956 0.77664,-2.23644c0.0288,-1.02756 -1.13082,-1.14378 -0.49311,-2.00287c1.76099,-2.37233 4.97448,-2.87688 7.24727,-4.56964c2.39675,-1.18742 4.5442,-3.72293 7.12439,-4.4733c0.11164,-0.01327 0.21657,-0.04313 0.31011,-0.08033c1.56884,-0.34548 3.63449,0.22104 5.15499,0.38629c1.81088,0.1968 4.14411,0.22072 5.95945,0.00007c0.53395,-0.0649 1.5879,-0.54041 2.23149,-0.35528c2.31303,0.66535 4.18411,1.79397 6.31047,2.85715c1.56721,1.1621 2.60514,2.45227 3.30779,3.87201c-0.06248,0.09685 -0.11737,0.21172 -0.16231,0.34654c-0.39529,1.18586 0.79245,1.58504 0.79245,1.58504l0.12885,0.03688c0.3279,1.11836 0.53526,2.32312 0.69529,3.60537c0.30508,2.44441 1.25477,4.55195 0.99572,7.09491c-0.01765,0.17323 -0.03754,0.34773 -0.05897,0.52102l-0.0288,0.00001c0,0 -1.25068,0.00355 -1.25068,1.25355c0,0.81339 0.52871,1.09973 0.89845,1.19897z" data-paper-data="{&quot;noHover&quot;:false,&quot;origItem&quot;:[&quot;Path&quot;,{&quot;applyMatrix&quot;:true,&quot;segments&quot;:[[[798.09239,300.2086],[0,1.62677],[0,-2.5]],[800.59239,297.7086],[[800.64999,297.7086],[0,0],[0.04286,-0.34657]],[[800.76758,296.66907],[-0.03529,0.34645],[0.51812,-5.08591]],[[798.77779,282.51406],[0.61016,4.88881],[-0.32007,-2.56452]],[[797.39271,275.32034],[0.65581,2.23671],[0,0]],[797.13515,275.24698],[[795.55402,272.0847],[-0.79057,2.37171],[0.08988,-0.26964]],[[795.87916,271.39258],[-0.12495,0.1937],[-1.40531,-2.83948]],[[789.27806,263.66856],[3.13441,2.32421],[-4.25271,-2.12635]],[[776.68467,257.97506],[4.62606,1.33069],[-1.28719,-0.37026]],[[772.23118,258.68987],[1.0679,-0.1298],[-3.63069,0.44131]],[[760.34605,258.69643],[3.62176,0.3936],[-3.04101,-0.33049]],[[750.06575,257.92006],[3.13768,-0.69097],[-0.18709,0.0744]],[[749.4473,258.08021],[0.22328,-0.02654],[-5.16039,1.50074]],[[735.24005,267.00189],[4.79351,-2.37484],[-4.54558,3.38552]],[[720.76789,276.10701],[3.52197,-4.74467],[-1.27541,1.71818]],[[721.7569,280.1047],[0.05759,-2.05513],[-0.0441,1.57376]],[[720.20632,284.56607],[0.59133,-1.45911],[-1.18626,2.92708]],[[718.40699,293.23648],[-0.38258,-3.30469],[0.51992,4.49104]],[[721.73489,306.52851],[-0.80669,-4.42986],[0.33953,1.86448]],[[723.56452,315.06067],[-0.67247,0.18535],[8.60439,-0.02671]],[[746.79309,318.53055],[-8.23093,-3.06954],[5.55414,2.07129]],[[765.35882,325.04393],[-6.13067,0.02459],[5.62768,-0.02257]],[[781.98605,320.44991],[-5.35867,1.33967],[1.63137,-0.40741]],[[786.89495,319.32308],[-1.63819,0.36324],[-0.11772,-0.36582]],[[786.75906,318.2086],[-0.03131,0.37675],[0.50019,-6.01899]],[[793.35134,313.77548],[-2.88955,0.70378],[2.04615,-0.49836]],[[798.75995,312.10016],[-1.63202,0.56017],[0.03196,-3.16512]],[[799.89043,302.60206],[-0.5439,3.16545],[-0.73949,-0.19847]]],&quot;closed&quot;:true}]}" fill="#b3e59e"/></g><path d="M197.80179,182.64597c0,-2.11709 1.71625,-3.83333 3.83334,-3.83333c2.11709,0 3.83333,1.71624 3.83333,3.83333c0,2.11709 -1.71624,3.83334 -3.83333,3.83334c-2.11709,0 -3.83334,-1.71625 -3.83334,-3.83334z" fill="#000000" stroke-width="0"/><path d="M220.80179,184.31264c0,-2.11709 1.71625,-3.83333 3.83334,-3.83333c2.11709,0 3.83333,1.71624 3.83333,3.83333c0,2.11709 -1.71624,3.83333 -3.83333,3.83333c-2.11709,0 -3.83334,-1.71624 -3.83334,-3.83333z" fill="#000000" stroke-width="0"/><path d="M214.60209,189.31436c-0.24656,1.22544 -1.47201,0.97888 -1.47201,0.97888l-0.65357,-0.1315c-1.77449,-0.36868 -3.36764,-1.0176 -5.1628,-1.37879c0,0 -1.22544,-0.24657 -0.97888,-1.47201c0.24656,-1.22544 1.47201,-0.97888 1.47201,-0.97888c1.78541,0.35924 3.40587,1.03977 5.16279,1.3788l0.65357,0.13151c0,0 1.22544,0.24656 0.97888,1.472z" fill="#214c17" stroke-width="0.5"/></g></g></g></svg>